# xmcd
#
# Track frame offsets:
# 150
# 25128
# 34439
# 49913
# 65454
# 89076
# 108141
# 129448
# 144178
# 161302
# 177544
# 196558
# 219620
# 240122
# 254936
# 285167
# 300343
# 324732
# 339546
#
# Disc length: 4782 seconds
#
# Revision: 0
# Processed by: cddbd v1.5PL3 Copyright (c) Steve Scherf et al.
# Submitted via: Audion 3.0.2 (http://www.panic.com/audion/)
#
DISCID=0a12ac13
DTITLE=hghj - mix 5
DYEAR=1900
DGENRE=
TTITLE0=hgfj
TTITLE1=reputations-2pac
TTITLE2=hgjf
TTITLE3=jgfj
TTITLE4=hgfj
TTITLE5=ghjf
TTITLE6=fjj
TTITLE7=gfjhj
TTITLE8=hjfghj
TTITLE9=hjfhj
TTITLE10=jhgj
TTITLE11=hgjgh
TTITLE12=hjgfhgj
TTITLE13=hg
TTITLE14=hgfj
TTITLE15=hjgj
TTITLE16=hgj
TTITLE17=jhgj
TTITLE18=hgfj
EXTD=
EXTT0=
EXTT1=
EXTT2=
EXTT3=
EXTT4=
EXTT5=
EXTT6=
EXTT7=
EXTT8=
EXTT9=
EXTT10=
EXTT11=
EXTT12=
EXTT13=
EXTT14=
EXTT15=
EXTT16=
EXTT17=
EXTT18=
PLAYORDER=
